# xmcd CD database file
#
# Track frame offsets:
#	150
#	26896
#	64508
#	92491
#	135697
#	161957
#	183898
#	212753
#
# Disc length: 3222 seconds
#
# Revision: 1
# Processed by: cddbd v1.5.2PL0 Copyright (c) Steve Scherf et al.
# Submitted via: CDex 1.51
#
DISCID=6b0c9408
DTITLE=Martin Schulte Quartet  - Walking Distance
DYEAR=2015
DGENRE=Jazz
TTITLE0=Walking Distance
TTITLE1=Driftin
TTITLE2=Curiosity
TTITLE3=On A Silent Day
TTITLE4=Picture Hunting
TTITLE5=Lights
TTITLE6=Lucid Dreaming
TTITLE7=Search For Peace
EXTD=YEAR: 2015
EXTT0=
EXTT1=
EXTT2=
EXTT3=
EXTT4=
EXTT5=
EXTT6=
EXTT7=
PLAYORDER=
